<svg width="30" height="30" viewBox="0 0 30 30" fill="none" xmlns="http://www.w3.org/2000/svg">
<mask id="mask0_1087_494" style="mask-type:luminance" maskUnits="userSpaceOnUse" x="0" y="1" width="30" height="28">
<path d="M29.9533 1.25879H0.163086V28.7413H29.9533V1.25879Z" fill="white"/>
</mask>
<g mask="url(#mask0_1087_494)">
<path d="M14.1391 27.5766L14.2909 27.6227C14.849 27.7916 15.3762 27.9508 15.7237 28.649C15.7325 28.6666 15.7448 28.6822 15.76 28.6948C15.7751 28.7071 15.7927 28.7164 15.8115 28.7216C15.8235 28.7248 15.8356 28.7262 15.848 28.7262C15.8749 28.7262 15.9012 28.7185 15.9238 28.7036C16.18 28.5351 16.4213 28.3826 16.6504 28.2376C17.1304 27.9338 17.5451 27.6718 17.9415 27.3664C19.3636 26.2945 20.6612 25.0645 21.8099 23.6988C23.3195 21.8733 24.8806 19.9857 26.3502 18.0097C27.2699 16.7727 28.0539 15.3917 28.7166 14.1949C29.3795 12.9839 29.7741 11.6422 29.8734 10.2622C30.0532 7.99442 29.519 5.95033 28.2857 4.18679C26.9132 2.22404 25.0879 1.26815 22.8643 1.34185C20.3558 1.42648 18.1497 2.39464 16.307 4.21956C16.2176 4.31225 16.1349 4.41123 16.0595 4.51572C15.9162 4.70441 15.7803 4.88353 15.5757 4.95448C13.4263 2.84065 11.783 2.01377 9.32458 1.80184C6.80162 1.58417 4.75912 2.40342 3.25348 4.23559C2.50629 5.14121 1.85137 6.12058 1.2987 7.15885C0.120631 9.38602 -0.124851 11.755 0.57021 14.2004C1.19009 16.383 2.22368 18.4233 3.61367 20.208C6.3927 23.7876 9.93406 26.2671 14.1391 27.5766Z" fill="#FFCF32"/>
</g>
</svg>